<?xml version="1.0" encoding="utf-8"?>
<!-- Generator: Adobe Illustrator 16.0.0, SVG Export Plug-In . SVG Version: 6.00 Build 0)  -->
<!DOCTYPE svg PUBLIC "-//W3C//DTD SVG 1.1//EN" "http://www.w3.org/Graphics/SVG/1.1/DTD/svg11.dtd">
<svg version="1.1" id="Layer_1" xmlns="http://www.w3.org/2000/svg" xmlns:xlink="http://www.w3.org/1999/xlink" x="0px" y="0px"
	 width="2607px" height="1561px" viewBox="0 0 2607 1561" enable-background="new 0 0 2607 1561" xml:space="preserve">
<g>
	<defs>
		<rect id="SVGID_1_" width="2606" height="1562"/>
	</defs>
	<clipPath id="SVGID_2_">
		<use xlink:href="#SVGID_1_"  overflow="visible"/>
	</clipPath>
	<g clip-path="url(#SVGID_2_)">
		<rect fill="#FCFCFC" width="2606" height="1556"/>
		<g opacity="0.4">
			<g>
				<g>
					<g>
						<line fill="none" stroke="#CCCCCC" stroke-width="4" stroke-miterlimit="10" x1="280" y1="132" x2="280" y2="1390"/>
						<line fill="none" stroke="#CCCCCC" stroke-width="4" stroke-miterlimit="10" x1="564" y1="132" x2="564" y2="1390"/>
					</g>
					<g>
						<line fill="none" stroke="#CCCCCC" stroke-width="4" stroke-miterlimit="10" x1="839" y1="132" x2="839" y2="1390"/>
						<line fill="none" stroke="#CCCCCC" stroke-width="4" stroke-miterlimit="10" x1="1123" y1="132" x2="1123" y2="1390"/>
					</g>
				</g>
				<g>
					<g>
						<line fill="none" stroke="#CCCCCC" stroke-width="4" stroke-miterlimit="10" x1="1408" y1="132" x2="1408" y2="1390"/>
						<line fill="none" stroke="#CCCCCC" stroke-width="4" stroke-miterlimit="10" x1="1693" y1="132" x2="1693" y2="1390"/>
					</g>
					<g>
						<line fill="none" stroke="#CCCCCC" stroke-width="4" stroke-miterlimit="10" x1="1971" y1="132" x2="1971" y2="1390"/>
						<line fill="none" stroke="#CCCCCC" stroke-width="4" stroke-miterlimit="10" x1="2252" y1="132" x2="2252" y2="1390"/>
					</g>
				</g>
			</g>
			<g>
				<g>
					<g>
						<line fill="none" stroke="#CCCCCC" stroke-width="4" stroke-miterlimit="10" x1="161" y1="1188" x2="2391" y2="1188"/>
						<line fill="none" stroke="#CCCCCC" stroke-width="4" stroke-miterlimit="10" x1="161" y1="904" x2="2391" y2="904"/>
					</g>
				</g>
				<g>
					<g>
						<line fill="none" stroke="#CCCCCC" stroke-width="4" stroke-miterlimit="10" x1="161" y1="618" x2="2391" y2="618"/>
						<line fill="none" stroke="#CCCCCC" stroke-width="4" stroke-miterlimit="10" x1="161" y1="334" x2="2391" y2="334"/>
					</g>
				</g>
			</g>
		</g>
		<g>
			<path fill="#231C69" d="M1651.96,497.648c0,0-87.974-108.52-19.395-195.65c68.58-87.128,168.131-39.416,219.013-26.969
				c50.883,12.447,234.501-8.299,225.652,168.033c-8.851,176.333,67.635,276.237,106.186,336.82
				c38.552,60.581,101.766,252.874-73.003,296.438c-174.769,43.563-488.79-152.34-478.106-232.657
				C1642.989,763.35,1692.96,665.91,1651.96,497.648z"/>
			<path fill="#E0AAA4" d="M2141.477,1356.447c0,0,8.187,76.057,64.458,59.562c36.775-10.78,47.828-53.898,58.473-95.245
				c-0.149-8.056-0.466-15.434-0.975-21.992c-7.064-91.033-34.315-339.038-34.315-339.038s-24.938-73.317-48.9-96.602
				c-51.648-50.188-121.615-53.497-88.502,104.123C2101.619,1014.396,2141.477,1356.447,2141.477,1356.447z"/>
			<path fill="#00AF41" d="M2225.811,2147.44c0,0-621.24,30.92-724.851-19.311c-20.22-14.75,110.825-637.229,110.825-637.229
				c-0.08-0.471-0.152-0.94-0.223-1.4c-73.291-458.11-112.731-598.36-18.512-661.06c36.912-24.563,80.13-18.841,109.81-27.471
				c58.391-16.97,89.409-30.26,89.409-30.26c35.83-10.99,125.82,6.7,238.301,32.89c34.42,8.011,70.949,16.82,108.68,25.851
				c0,0,34.756-0.87,2.34,236.55c-11.531,84.452-29.59,305.19-26.59,423.5v0.19C2118,1601.25,2227.16,1999.41,2225.811,2147.44z"/>
			<path fill="#F5C8C1" d="M2030.57,803.6c-6.4,64.811-41.45,180.351-159.801,186.811c-81.619,4.45-123.229-46.57-145.01-99.271
				c-14.18-34.279-19.96-69.279-22.9-90.17c53.86-15.649,84.4-28.17,88.83-30.01c-0.149-31.27-3.47-62.06-14.279-74.16
				c-0.1-0.12-0.15-0.17-0.15-0.17c-0.439-0.51-0.859-0.93-1.35-1.37c-0.801-0.729-1.79-1.149-2.561-1.93
				c-61.439-63.15-76.439-222.95-76.439-222.95c0.91-56.899,47.64-166.56,132.84-168.91c85.23-2.359,178,30.931,180.48,168.95
				c2.52,138.061-33.521,161.13-75.461,218.63c-1.149,1.58-2.31,3.16-3.43,4.78c-0.05,0.05-0.09,0.11-0.13,0.17
				c-6.26,8.95-11.94,18.81-14,32.72c-0.14,1.011-0.271,2.04-0.39,3.09c-0.24,2.07-0.45,4.19-0.631,6.33
				c-0.3,3.79-0.47,7.69-0.529,11.681c-0.15,9.66,0.359,19.779,1.29,29.89c0.04,0.49,0.09,0.96,0.14,1.43
				C1950.82,785.47,1989.17,793.96,2030.57,803.6z"/>
			<path fill="#EDBFAF" d="M1782.66,832.89c-0.141,1.45-0.28,2.851-0.42,4.19c-0.95,9.18-1.86,15.59-2.33,17.63
				c-0.4,1.69,0.34-12.34,1.979-19.28C1782.12,834.4,1782.38,833.53,1782.66,832.89z"/>
			<path fill="none" stroke="#231C69" stroke-width="3" stroke-linecap="round" stroke-miterlimit="10" d="M1852.029,572.652
				c0,0-23.733,37.914,4.658,42.514"/>
			<path fill="none" stroke="#231C69" stroke-width="3" stroke-linecap="round" stroke-miterlimit="10" d="M1846.769,655.418
				c0,0,16.028,9.719,27.474-1.916"/>
			<path fill="#231C69" d="M1785.429,569.377c0,4.902-3.481,8.869-7.781,8.869s-7.781-3.967-7.781-8.869
				c0-4.896,3.481-8.855,7.781-8.855S1785.429,564.48,1785.429,569.377z"/>
			<path fill="#231C69" d="M1943.345,562.941c0,4.902-3.481,8.869-7.781,8.869s-7.774-3.967-7.774-8.869
				c0-4.896,3.475-8.857,7.774-8.857S1943.345,558.045,1943.345,562.941z"/>
			<path fill="#F5C8C1" d="M1716.897,558.127c0,0-43.614,4.531-24.815,43.086c18.807,38.555,44.426,30.334,44.426,30.334
				L1716.897,558.127z"/>
			<path fill="#F5C8C1" d="M1996.264,558.127c0,0,43.615,4.531,24.816,43.086c-18.801,38.555-44.426,30.334-44.426,30.334
				L1996.264,558.127z"/>
			<path fill="#F5C8C1" d="M1781.89,835.43c0.23-1.029,0.49-1.899,0.771-2.54c-0.141,1.45-0.28,2.851-0.42,4.19
				C1782.12,836.53,1782,835.98,1781.89,835.43z"/>
			<path fill="#E0AAA4" d="M1931.21,694c-6.26,8.95-11.94,18.81-14,32.72c-0.14,1.011-0.271,2.04-0.39,3.09
				c-26.301,12.33-61.19,32.4-74.08,56.69c-18.771,35.33-106.03,36.5-116.98,104.64c-14.18-34.279-19.96-69.279-22.9-90.17
				c53.86-15.649,84.4-28.17,88.83-30.01c-0.149-31.27-3.47-62.06-14.279-74.16c0,0,55,29.7,79.279,27.7
				C1880.96,722.5,1920.46,696.5,1931.21,694z"/>
			<path fill="#9B9A9A" d="M2225.811,2147.44c0,0-621.24,30.92-724.851-19.311c-20.22-14.75,110.825-636.979,110.825-636.979
				c-0.08-0.471-0.155-1.15-0.225-1.15H2115v-0.31C2118,1601.25,2227.16,1999.41,2225.811,2147.44z"/>
			<path fill="#FFCE00" d="M1730.602,792.57c0,0,10.358,85.291,42.358,114.61s76,40.683,81,83.501c0,0-74.156,17.818-123.358-64.182
				c-52.848-88.077-40.691-126.585-40.691-126.585S1716.244,786.641,1730.602,792.57z"/>
			<path fill="#FFCE00" d="M1998.062,792.57c0,0-10.358,85.291-42.358,114.61s-76,40.683-81,83.501
				c0,0,74.156,17.818,123.358-64.182c52.848-88.077,40.691-126.585,40.691-126.585S2012.42,786.641,1998.062,792.57z"/>
			<path fill="#231C69" d="M1720.582,324.894c0,0-24.47,61.154,23.532,110.557c85.844,88.348,171.62,17.741,186.556,31.392
				c14.938,13.646,18.652,51.954,35.994,58.733c17.341,6.779,35.921,5.805,43.353,65.665c7.433,59.859,54.501,23.519,42.114-73.645
				c-12.387-97.162-34.682-149.025-38.398-153.119c-3.716-4.095-37.159-32.758-37.159-32.758S1817.035,234.605,1720.582,324.894z"/>
			<polygon fill="#029633" points="1634.388,953.299 1697.027,1333.088 1771.332,1490 1664.96,1490 			"/>
			<g>
				<path fill="#F5C8C1" d="M1499.021,988.632c0,0,29.823,247.709,43.633,337.968c12.869,84.127,88.312,294.49,102.291,348.697
					c13.979,54.2,28.648,81.018,29.723,110.049c1.076,29.029,54.316,105.723,83.104,132.019
					c28.787,26.286,69.454,16.237,69.454,16.237s-20.902-24.877-27.845-43.432c-6.94-18.553-1.768-47.816-1.768-47.816
					s14.749,13.137,18.605,24.963c3.858,11.825,5.947,22.013,9.363,21.887c3.413-0.129,6.453-33.588,2.529-47.124
					c-3.923-13.532-37.504-66.159-51.2-89.591c-13.692-23.432-22.702-59.014-23.052-68.4
					c-0.349-9.391-69.098-271.277-79.334-329.039c0,0-38.918-342.157-39.986-390.316c-3.574-161.022-70.959-141.899-109.85-81.287
					C1506.646,911.566,1499.021,988.632,1499.021,988.632z"/>
			</g>
			<g>
				<path fill="#E0AAA4" d="M2376,843.56l-9.85,113.74c-24.48,10.63-51.7,7.04-67.041,3.49c2.94-18.26-22.399-32.22-30.09-68.69
					c-8.43-39.97-0.709-64.75,17.98-40.229c13.16,17.27,36.96,17.63,36.96,17.63s34-52,52-26
					C2375.97,843.52,2375.99,843.54,2376,843.56z"/>
				<path fill="#F5C8C1" d="M2385.96,965c-22,51.5-34,166.5-68,300.5s-125,172.06-140,147.34c-38-62.67,36-185.34,52-222.54
					s60-204.8,68-225.3c0.56-1.44,0.94-2.84,1.149-4.21c15.341,3.55,42.561,7.14,67.041-3.49l9.85-113.74
					C2393.98,869.57,2407.939,913.54,2385.96,965z"/>
				<path fill="none" stroke="#231C69" stroke-width="3" stroke-linecap="round" stroke-miterlimit="10" d="M2366.15,957.3
					l9.85-113.74"/>
				<path fill="#4981FC" d="M2282.229,863.168l10.398,86.666c0,0,30.665,15.885,66.666,0l2.667-86.666
					c0,0-25.415-7.334-42.374-5.334S2298.817,864.463,2282.229,863.168z"/>
				<g>
					<path fill="none" stroke="#8E8E8E" stroke-width="3" stroke-miterlimit="10" d="M2263.571,802.756l23.268,154.545
						c0,0,43.001,20.441,79.313,0l13.378-154.545C2379.53,802.756,2327.929,766.445,2263.571,802.756z"/>
					<path fill="none" stroke="#8E8E8E" stroke-width="3" stroke-miterlimit="10" d="M2263.571,802.756c0,0,66.269,31.533,115.959,0
						"/>
				</g>
				<path fill="#F5C8C1" d="M2375.998,843.557c0,0-12.372-13.943-25.321-2.667s-38.325,42.027-29.126,69.026
					s37.52-1.706,51.608,12.646C2373.159,922.562,2391.023,875.542,2375.998,843.557z"/>
			</g>
			<g>
				<path fill="#E2E2E2" d="M2332.297,641.807l12.896-53.633c16.184-2.908,31.884-9.803,45.581-20.854
					c43.51-35.108,50.318-98.839,15.209-142.347c-35.107-43.508-98.838-50.318-142.348-15.209
					c-43.506,35.106-50.314,98.837-15.207,142.346c15.742,19.509,37.242,31.633,60.088,35.916L2332.297,641.807z"/>
				<path fill="#468AF5" d="M2362.627,504.176c1.652,19.975-13.201,37.506-33.176,39.158c-19.975,1.65-37.506-13.202-39.158-33.178
					c-1.651-19.975,24.48-69.959,30.589-70.464C2328.486,439.062,2360.976,484.2,2362.627,504.176z"/>
				
					<ellipse transform="matrix(0.9969 0.0783 -0.0783 0.9969 46.3105 -179.2272)" fill="#7AB4F9" cx="2307.621" cy="500.668" rx="8.253" ry="16.799"/>
			</g>
			<path fill="none" stroke="#FCFCFC" stroke-width="4" stroke-miterlimit="10" d="M1717.244,387.311
				c0,0-18.265-68.758,19.264-100.849"/>
			<path fill="none" stroke="#FCFCFC" stroke-width="4" stroke-miterlimit="10" d="M2013.855,615.166
				c0,0,14.332,86.653,74.498,98.324"/>
			<g opacity="0.2">
				<ellipse fill="#E9004C" cx="1776.778" cy="611.815" rx="19.499" ry="8.132"/>
				<ellipse fill="#E9004C" cx="1938.778" cy="611.815" rx="19.499" ry="8.132"/>
			</g>
			<g>
				<circle fill="#FCFCFC" cx="1884.242" cy="1360.274" r="41.72"/>
				<path fill="#00AF41" d="M1855.339,1365.023c0,0,20.039,11.044,25.048,19.338c0,0,30.474-43.889,45.502-51.193
					c0,0-37.57,17.217-47.589,36.264c0,0-11.689-5.581-22.961-5.998"/>
			</g>
		</g>
		<g>
			<path fill="#E0AAA4" d="M1031.655,1390.779c0.002,0.014,17.706,94.996,119.175,65.469c22.511-6.551,40.497-20.215,54.862-37.51
				c-0.257-17.863-0.969-33.766-2.267-46.924c-10.88-110.367-45.412-364.092-45.412-364.092s-208.678-28.926-149.94,134.484
				C1021.218,1178.785,1028.349,1308.092,1031.655,1390.779z"/>
			<path fill="#E0AAA4" d="M341.93,1345.551c-0.004,0.014-28.087,92.46-125.675,51.909c-21.65-8.996-38.017-24.562-50.385-43.338
				c2.228-17.726,4.692-33.452,7.434-46.387c23-108.491,85.337-356.851,85.337-356.851s210.595-5.708,134.174,150.218
				C375.712,1136.005,354.346,1263.734,341.93,1345.551z"/>
			<path fill="#9B9A9A" d="M1051.943,1195.002l129.863-36.268c0,0-43.325-389.818-194.151-432.271
				C836.836,684.018,1051.943,1195.002,1051.943,1195.002z"/>
			<path fill="#9B9A9A" d="M372.191,1157.002l-169.011-18.268c0,0,68.729-382.822,210.146-450.271
				C657.793,571.867,372.191,1157.002,372.191,1157.002z"/>
			<path fill="#4981FC" d="M450.06,1670c0,0-42.05,25.12,0,77.741c0,0,337.944,55.009,559.086-11.962
				c0,0,21.811-39.779-17.128-65.779H450.06z"/>
			<path fill="#E2E2E2" d="M494.694,646.019c-25.537,0.264-80.888,53.304-99.368,80.444c-26.21,38.47-36.746,126.007-48.126,185.917
				c-8.84,46.561-13.72,103.32-15.41,176.04c-3.08,131.2,61.466,312.061,74.396,581.08l-50.517,213.61
				c5.33,2.409,11.76,4.54,19.18,6.43c121.141,30.78,565.69-8.979,699.2-22.77c29.06-3-43.801-213.021-43.801-213.021
				c14.64-41.829-39.774-146.159,3-306.03c24.29-90.781,15.391-366.528,15.391-366.528c-0.91-25.91-2.56-49.341-4.77-70.511
				c-15.17-145.91-56.21-184.22-56.21-184.22S696.618,643.936,494.694,646.019z"/>
			<linearGradient id="SVGID_3_" gradientUnits="userSpaceOnUse" x1="712.1436" y1="1407.7207" x2="796.1269" y2="1653.6707">
				<stop  offset="0" style="stop-color:#FFFFFF;stop-opacity:0"/>
				<stop  offset="1" style="stop-color:#000000"/>
			</linearGradient>
			<path opacity="0.3" fill="url(#SVGID_3_)" d="M494.694,646.019c-25.537,0.264-80.888,53.304-99.368,80.444
				c-26.21,38.47-36.746,126.007-48.126,185.917c-8.84,46.561-13.72,103.32-15.41,176.04c-3.08,131.2,61.466,312.061,74.396,581.08
				l-50.517,213.61c5.33,2.409,11.76,4.54,19.18,6.43c121.141,30.78,565.69-8.979,699.2-22.77
				c29.06-3-43.801-213.021-43.801-213.021c14.64-41.829-39.774-146.159,3-306.03c24.29-90.781,15.391-366.528,15.391-366.528
				c-0.91-25.91-2.56-49.341-4.77-70.511c-15.17-145.91-56.21-184.22-56.21-184.22S696.618,643.936,494.694,646.019z"/>
			<path fill="#E2E2E2" d="M615.21,667.73"/>
			<path fill="#231C69" d="M597.92,708.169c0,0-6.144-93.986,102.792-85.823c108.936,8.164,93.971,85.823,93.971,85.823
				S726.936,784.152,597.92,708.169z"/>
			<polyline fill="none" stroke="#231C69" stroke-width="3" stroke-linecap="round" stroke-miterlimit="10" points="678.5,816 
				678.5,1014.5 715.5,1013.049 715.5,816 			"/>
			
				<rect x="814.5" y="1033.5" fill="none" stroke="#231C69" stroke-width="3" stroke-linecap="round" stroke-miterlimit="10" width="185" height="33"/>
			<g>
				<path fill="#E0AAA4" d="M1254.696,720.84l4.829,142.016c-28.661,16.795-62.831,16.426-82.317,14.333
					c0.903-23.002-32.494-36.464-47.447-80.381c-16.391-48.13-10.556-79.903,16.204-52.397
					c18.843,19.373,48.305,16.261,48.305,16.261s34.241-69.336,60.368-39.899C1254.652,720.795,1254.681,720.816,1254.696,720.84z"
					/>
				<path fill="#EDBFAF" d="M1285.154,869.41c-19.487,66.924,7.999,206.758-1.857,378.546
					c-15.65,272.758-165.995,234.224-188.225,205.921c-56.322-71.76,16.782-234.398,30.993-282.756
					c14.21-48.359,43.529-262.031,50.351-288.559c0.477-1.863,0.737-3.65,0.792-5.374c19.486,2.093,53.657,2.462,82.317-14.333
					l-4.829-142.016C1280.801,750.293,1304.623,802.537,1285.154,869.41z"/>
				<path fill="#231C69" d="M1141.757,759.084l25.803,105.535c0,0,40.266,15.045,82.378-9.965l-9.659-107.487
					c0,0-32.5-5.263-53.157-0.258C1166.465,751.916,1162.449,758.204,1141.757,759.084z"/>
				<g>
					<path fill="none" stroke="#8E8E8E" stroke-width="3" stroke-miterlimit="10" d="M1109.674,687.224l51.85,187.487
						c0,0,56.189,18.831,98.003-11.854l-6.567-192.966C1252.96,669.892,1183.771,632.736,1109.674,687.224z"/>
					<path fill="none" stroke="#8E8E8E" stroke-width="3" stroke-miterlimit="10" d="M1109.674,687.224
						c0,0,86.598,29.061,143.286-17.332"/>
				</g>
				<path fill="#EDBFAF" d="M1254.693,720.836c0,0-17.371-15.381-31.687,0.49c-14.315,15.867-41.076,57.658-25.672,89.646
					c15.402,31.986,46.105-7.716,65.66,7.913C1262.994,818.885,1278.04,758.113,1254.693,720.836z"/>
			</g>
			<g>
				<g>
					<path fill="#EDBFAF" d="M621.439,785.053L621.439,785.053z"/>
					<path fill="#EDBFAF" d="M605.914,648.652L605.914,648.652z"/>
					<path fill="#EDBFAF" d="M865.41,512.09c-5.01,29.34-13.11,52.69-24.6,72.2c-13.59,23.09-31.91,40.82-55.41,56.77
						c-3.01,2.051-5.65,4.54-7.95,7.4c-6.24,7.73-10.03,18.23-12.05,30.28c-0.48,3.029-0.87,6.2-1.17,9.42
						c-0.3,3.33-0.52,6.76-0.65,10.26c-0.26,7.15-0.15,14.57,0.48,22.03c0.25,3.09,0.59,6.189,1.03,9.28
						c1.81,12.689,20.31,36.6,20.31,36.6s-13.44,49.25-85.56,49.06c-6.74-0.02-12.9-0.43-18.53-1.149
						c-57.39-7.431-59.87-48.141-59.87-48.141c9.62-15.34,12.43-31.56,11.55-46.88c-2.15-37.47-26.34-69.6-27.061-70.55
						c-0.01-0.01-0.02-0.02-0.02-0.02c-0.521-0.511-0.99-0.94-1.55-1.37c-0.9-0.73-1.88-1.38-2.91-1.931
						c-22.98-12.06-39.91-34.52-52.38-61.449c-10.45-22.521-17.771-48.16-22.891-73.471c-13.359-65.92-11.84-129.52-11.84-129.52
						c1.03-56.9,54.28-143.07,151.38-145.42c97.14-2.36,202.851,30.93,205.68,168.95C872.3,447.7,870.39,482.87,865.41,512.09z"/>
					<linearGradient id="SVGID_4_" gradientUnits="userSpaceOnUse" x1="692.9512" y1="235.3755" x2="692.9512" y2="815.3901">
						<stop  offset="0.2982" style="stop-color:#FF1D25"/>
						<stop  offset="0.3193" style="stop-color:#FE3038;stop-opacity:0.9429"/>
						<stop  offset="0.3889" style="stop-color:#FA6B70;stop-opacity:0.7551"/>
						<stop  offset="0.4561" style="stop-color:#F79B9E;stop-opacity:0.5736"/>
						<stop  offset="0.5193" style="stop-color:#F5C1C3;stop-opacity:0.4029"/>
						<stop  offset="0.5776" style="stop-color:#F3DCDD;stop-opacity:0.2455"/>
						<stop  offset="0.6291" style="stop-color:#F2ECEC;stop-opacity:0.1064"/>
						<stop  offset="0.6685" style="stop-color:#F2F2F2;stop-opacity:0"/>
					</linearGradient>
					<path fill="url(#SVGID_4_)" d="M865.41,512.09c-5.01,29.34-13.11,52.69-24.6,72.2c-13.59,23.09-31.91,40.82-55.41,56.77
						c-3.01,2.051-5.65,4.54-7.95,7.4c-6.24,7.73-10.03,18.23-12.05,30.28c-0.48,3.029-0.87,6.2-1.17,9.42
						c-0.3,3.33-0.52,6.76-0.65,10.26c-0.26,7.15-0.15,14.57,0.48,22.03c0.25,3.09,0.59,6.189,1.03,9.28
						c1.81,12.689,20.31,36.6,20.31,36.6s-13.44,49.25-85.56,49.06c-6.74-0.02-12.9-0.43-18.53-1.149
						c-57.39-7.431-59.87-48.141-59.87-48.141c9.62-15.34,12.43-31.56,11.55-46.88c-2.15-37.47-26.34-69.6-27.061-70.55
						c-0.01-0.01-0.02-0.02-0.02-0.02c-0.521-0.511-0.99-0.94-1.55-1.37c-0.9-0.73-1.88-1.38-2.91-1.931
						c-22.98-12.06-39.91-34.52-52.38-61.449c-10.45-22.521-17.771-48.16-22.891-73.471c-13.359-65.92-11.84-129.52-11.84-129.52
						c1.03-56.9,54.28-143.07,151.38-145.42c97.14-2.36,202.851,30.93,205.68,168.95C872.3,447.7,870.39,482.87,865.41,512.09z"/>
					<path fill="none" stroke="#231C69" stroke-width="3" stroke-linecap="round" stroke-miterlimit="10" d="M705.149,524.671
						c0,0,27.04,37.913-5.312,42.515"/>
					<path fill="none" stroke="#231C69" stroke-width="3" stroke-linecap="round" stroke-miterlimit="10" d="M736.141,606.643
						c0,0-41.357-22.804-71.555,3.305"/>
					<path fill="#231C69" d="M639.211,512.523c0,4.902-3.973,8.869-8.869,8.869s-8.862-3.967-8.862-8.869
						c0-4.896,3.966-8.856,8.862-8.856S639.211,507.627,639.211,512.523z"/>
					<path fill="#231C69" d="M813.176,508.523c0,4.902-3.966,8.869-8.862,8.869c-4.902,0-8.862-3.967-8.862-8.869
						c0-4.896,3.96-8.856,8.862-8.856C809.21,499.667,813.176,503.627,813.176,508.523z"/>
					<path fill="#EDBFAF" d="M528.333,510.146c0,0-49.699,4.531-28.278,43.087c21.427,38.555,50.629,30.334,50.629,30.334
						L528.333,510.146z"/>
					<path fill="#EDBFAF" d="M855.554,510.146c0,0,49.699,4.531,28.272,43.087c-21.421,38.555-50.623,30.334-50.623,30.334
						L855.554,510.146z"/>
					<path fill="none" stroke="#231C69" stroke-width="3" stroke-linecap="round" stroke-miterlimit="10" d="M777.451,457.5
						c0,0,11.509,30,37.509,22"/>
					<path fill="none" stroke="#231C69" stroke-width="3" stroke-linecap="round" stroke-miterlimit="10" d="M597.96,457.5
						c0,0-11.509,30-37.509,22"/>
					<path fill="none" stroke="#231C69" stroke-width="3" stroke-linecap="round" stroke-miterlimit="10" d="M748.247,586.301
						c0,0-20.106,22.342,0,33.646"/>
				</g>
				<path fill="#231C69" d="M763.752,716.175c0,0-25.109,71.678-48.017,99.212l61.716,50.033c0,0,23.137-101.886,18.754-140.938
					S763.752,716.175,763.752,716.175z"/>
				<path fill="#E0AAA4" d="M777.45,648.46c-6.24,7.73-10.03,18.23-12.05,30.28c-0.48,3.029-0.87,6.2-1.17,9.42
					c-0.3,3.33-0.52,6.76-0.65,10.26c-8.19,5.92-16.7,12.54-25,19.75c-29.96,25.99-57.3,59.69-57.27,96.07
					c-57.39-7.431-59.87-48.141-59.87-48.141c9.62-15.34,12.43-31.56,11.55-46.88c-2.15-37.47-26.34-69.6-27.061-70.55
					C607.31,649.76,674.03,701.87,777.45,648.46z"/>
				<path fill="#231C69" d="M630.741,716.175c0,0,25.109,71.678,48.017,99.212l-61.716,50.033c0,0-23.137-101.886-18.754-140.938
					S630.741,716.175,630.741,716.175z"/>
				<path fill="#231C69" d="M597.479,351.775c0,0-9.537,51.725-37.028,77.725s-15.468,89.766-27.479,95.883
					s-10.283-14.324-10.283-14.324l-22.977,11.461c0,0-61.248-164.441,0-216.73c0,0,4.207-134.289,121.727-134.289
					s160.007,40,211.764,0l73.757,74c0,0-4.689,74-35.345,86c0,0,29.388,103.785,6.366,185.893c0,0-12.549-5.842-16.785,9.133
					s-14.236-2.691-10.236-26.858s10.486-93.616-17.757-147.892C833.203,351.775,787.999,416.051,597.479,351.775z"/>
				<path fill="none" stroke="#FCFCFC" stroke-width="4" stroke-miterlimit="10" d="M748.247,223.602
					c0,0,66.91,14.976,112.95-24.016"/>
				<path fill="none" stroke="#FCFCFC" stroke-width="4" stroke-miterlimit="10" d="M777.45,268.605
					c0,0,72.689,2.653,111.739-42.178"/>
			</g>
			<g>
				<path fill="#E2E2E2" d="M1182.492,518.896l15.742-52.867c16.316-2.039,32.363-8.085,46.63-18.39
					c45.323-32.733,55.526-96.01,22.791-141.331c-32.733-45.321-96.009-55.526-141.332-22.791
					c-45.319,32.732-55.522,96.008-22.789,141.33c14.678,20.321,35.499,33.576,58.084,39.074L1182.492,518.896z"/>
				<g>
					<path fill="#00AF41" d="M1162.528,381.458c0.3,1.812,3.261,2.499,6.256,1.636c2.996-0.862,22.195,17.582,29.457,24.264
						c7.263,6.68,13.506,14.025,13.611,16.514s-1.166,9.343,3.758,9.427c4.925,0.084,3.155-6.429,4.845-8.102
						c1.689-1.674,6.553-1.852,5.713-5.797c-0.84-3.944-7.78-0.532-12.008-3.983c-4.228-3.453-38.788-34.651-39.768-37.286
						c-0.979-2.635-0.776-7.68-4.615-7.172c-3.839,0.509-1.276,6.134-3.07,7.228S1162.151,379.18,1162.528,381.458z"/>
					<path fill="#00AF41" d="M1218.051,381.458c-0.299,1.812-3.26,2.499-6.256,1.636c-2.996-0.862-22.195,17.582-29.457,24.264
						c-7.263,6.68-13.506,14.025-13.611,16.514s1.166,9.343-3.759,9.427s-3.155-6.429-4.844-8.102
						c-1.689-1.674-6.553-1.852-5.712-5.797c0.839-3.944,7.78-0.532,12.008-3.983c4.228-3.453,38.788-34.651,39.768-37.286
						c0.98-2.635,0.776-7.68,4.616-7.172c3.839,0.509,1.276,6.134,3.07,7.228C1215.665,379.279,1218.428,379.18,1218.051,381.458z"
						/>
					<g>
						<path fill="#00AF41" d="M1191.662,294.324c12.474,0.791,23.366,6.206,23.731,23.001c0.365,16.794-12.048,8.243-11.866,16.17
							s3.468,16.688-2.373,16.688c-5.842,0-8.397-16.688-8.397-16.688s2.921,17.419-3.286,16.688s-6.572-16.688-6.572-16.688
							s-0.73,15.958-7.302,15.593s-3.651-15.593-3.651-15.593s-12.048-0.836-10.953-15.805
							C1162.089,302.721,1168.661,292.863,1191.662,294.324z"/>
						<path fill="#FFFFFF" d="M1172.192,323.641c2.492,0.515,12.355,5.852,11.186-4.82c-1.168-10.672-10.518-17.212-14.024-7.917
							C1165.848,320.197,1170.592,323.31,1172.192,323.641z"/>
						<path fill="#FFFFFF" d="M1204.2,323.641c-2.492,0.515-12.354,5.852-11.186-4.82s10.518-17.212,14.024-7.917
							C1210.545,320.197,1205.8,323.31,1204.2,323.641z"/>
					</g>
				</g>
			</g>
			<path fill="#EDBFAF" d="M706.139,1306.854c-32.469,5.699-76.789,0.928-87.625-2.637c-10.847-3.578-194.113-70.93-264.214-83.676
				c0,0-19.219-2.48-48.301-6.604c-47.719-1.533-121.571,39.01-136.229,121.67c0,0-16.09,43.861,56.464,68.445
				c4.969,1.057,9.729,2.055,14.243,2.986c101.228,20.877,254.396,10.506,322.016,17.484c67.624,6.971,104.364,1.595,137.873,12.64
				c33.516,11.027,143.333-17.204,185.439-38.875c42.088-21.682,47.824-72.226,47.824-72.226s-37.156,13.288-61.217,13.354
				c-24.062,0.07-55.198-18.18-55.198-18.18s21.19-11.247,36.283-10.646c15.1,0.602,27.58,2.531,28.876-1.416
				c1.299-3.939-35.518-21.531-52.583-22.777C812.717,1285.145,738.608,1301.158,706.139,1306.854z"/>
			<g>
				<circle fill="#FCFCFC" cx="685.242" cy="1360.274" r="41.72"/>
				<g>
					<path fill="#E9004C" d="M659.293,1390.502c0,0,37.567-50.029,52.596-57.334c0,0-37.57,17.217-47.589,36.264
						C664.3,1369.432,659.476,1380.523,659.293,1390.502z"/>
					<path fill="#E9004C" d="M711.889,1390.502c0,0-37.567-50.029-52.596-57.334c0,0,37.57,17.217,47.589,36.264
						C706.882,1369.432,711.706,1380.523,711.889,1390.502z"/>
				</g>
			</g>
		</g>
	</g>
</g>
</svg>
